<?xml version="1.0" encoding="UTF-8" standalone="no"?>
<svg
   id="Layer_2"
   data-name="Layer 2"
   viewBox="0 0 395.61 165.67"
   version="1.1"
   sodipodi:docname="imagem-grafica-nq-white-name.svg"
   xmlns:inkscape="http://www.inkscape.org/namespaces/inkscape"
   xmlns:sodipodi="http://sodipodi.sourceforge.net/DTD/sodipodi-0.dtd"
   xmlns="http://www.w3.org/2000/svg"
   xmlns:svg="http://www.w3.org/2000/svg">
  <sodipodi:namedview
     id="namedview9"
     pagecolor="#ffffff"
     bordercolor="#000000"
     borderopacity="0.25"
     inkscape:showpageshadow="2"
     inkscape:pageopacity="0.0"
     inkscape:pagecheckerboard="0"
     inkscape:deskcolor="#d1d1d1" />
  <defs
     id="defs1">
    <style
       id="style1">
      .cls-1 {
        font-family: Montserrat-Bold, Montserrat;
        font-size: 49.16px;
        font-variation-settings: 'wght' 700;
        font-weight: 700;
      }

      .cls-1, .cls-2 {
        fill: #fff;
      }

      .cls-3 {
        letter-spacing: 0em;
      }

      .cls-4 {
        letter-spacing: -.01em;
      }

      .cls-5 {
        letter-spacing: -.01em;
      }
    </style>
  </defs>
  <g
     id="MASTER">
    <g
       id="ig-horizontal-dark-name">
      <g
         id="g9">
        <g
           id="lettering">
          <g
             id="text5"
             class="cls-1"
             style="font-weight:700;font-size:49.16px;font-family:Montserrat-Bold, Montserrat;font-variation-settings:'wght' 700;fill:#ffffff"
             transform="translate(112.08,143.4)"
             aria-label="QUALIFICA">
            <path
               d="m 20.74552,0.58992 q -4.03112,0 -7.52148,-1.32732 -3.4412,-1.32732 -5.99752,-3.73616 -2.50716,-2.40884 -3.9328,-5.6534 -1.37648,-3.24456 -1.37648,-7.07904 0,-3.83448 1.37648,-7.07904 1.42564,-3.24456 3.98196,-5.6534 2.55632,-2.40884 5.99752,-3.73616 3.4412,-1.32732 7.47232,-1.32732 4.08028,0 7.47232,1.32732 3.4412,1.32732 5.94836,3.73616 2.55632,2.35968 3.98196,5.60424 1.42564,3.24456 1.42564,7.1282 0,3.83448 -1.42564,7.1282 -1.42564,3.24456 -3.98196,5.6534 -2.50716,2.35968 -5.94836,3.687 -3.39204,1.32732 -7.47232,1.32732 z m 11.25764,7.32484 q -2.01556,0 -3.83448,-0.44244 Q 26.39892,7.02988 24.62916,6.04668 22.90856,5.06348 20.99132,3.39204 19.12324,1.7206 16.91104,-0.7374 l 8.3572,-2.11388 q 1.32732,1.81892 2.458,2.90044 1.13068,1.08152 2.16304,1.52396 1.08152,0.44244 2.26136,0.44244 3.14624,0 5.60424,-2.55632 L 41.2944,3.687 Q 37.80404,7.91476 32.00316,7.91476 Z M 20.74552,-6.19416 q 2.31052,0 4.22776,-0.78656 1.9664,-0.78656 3.4412,-2.26136 1.4748,-1.4748 2.26136,-3.49036 0.83572,-2.06472 0.83572,-4.47356 0,-2.458 -0.83572,-4.47356 -0.78656,-2.01556 -2.26136,-3.49036 -1.4748,-1.4748 -3.4412,-2.26136 -1.91724,-0.78656 -4.22776,-0.78656 -2.31052,0 -4.27692,0.78656 -1.9664,0.78656 -3.4412,2.26136 -1.42564,1.4748 -2.26136,3.49036 -0.78656,2.01556 -0.78656,4.47356 0,2.40884 0.78656,4.47356 0.83572,2.01556 2.26136,3.49036 1.4748,1.4748 3.4412,2.26136 1.9664,0.78656 4.27692,0.78656 z"
               id="path9" />
            <path
               style="letter-spacing:-0.01em"
               d="m 60.859042,0.58992 q -7.32484,0 -11.45428,-4.08028 -4.12944,-4.08028 -4.12944,-11.65092 V -34.412 h 7.96392 v 18.97576 q 0,4.916 2.01556,7.07904 2.01556,2.16304 5.6534,2.16304 3.63784,0 5.6534,-2.16304 2.01556,-2.16304 2.01556,-7.07904 V -34.412 h 7.8656 v 19.27072 q 0,7.57064 -4.12944,11.65092 -4.12944,4.08028 -11.45428,4.08028 z"
               id="path10" />
            <path
               d="m 79.047558,0 15.33792,-34.412 h 7.865602 L 117.63816,0 h -8.3572 L 96.695998,-30.38088 h 3.14624 L 87.208118,0 Z m 7.66896,-7.374 2.11388,-6.04668 H 106.528 l 2.16304,6.04668 z M 121.22687,0 v -34.412 h 7.96392 v 27.92288 h 17.25516 V 0 Z m 29.69265,0 v -34.412 h 7.96392 V 0 Z m 16.12444,0 v -34.412 h 26.00564 v 6.3908 H 175.00788 V 0 Z m 7.374,-12.5358 v -6.3908 h 16.51776 v 6.3908 z M 198.45719,0 v -34.412 h 7.96392 V 0 Z"
               id="path11" />
            <path
               style="letter-spacing:-0.01em"
               d="m 231.03889,0.58992 q -3.98196,0 -7.42316,-1.27816 -3.39204,-1.32732 -5.8992,-3.73616 -2.50716,-2.40884 -3.9328,-5.6534 -1.37648,-3.24456 -1.37648,-7.1282 0,-3.88364 1.37648,-7.1282 1.42564,-3.24456 3.9328,-5.6534 2.55632,-2.40884 5.94836,-3.687 3.39204,-1.32732 7.42316,-1.32732 4.47356,0 8.06224,1.57312 3.63784,1.52396 6.09584,4.52272 l -5.11264,4.71936 q -1.76976,-2.01556 -3.9328,-2.99876 -2.16304,-1.03236 -4.71936,-1.03236 -2.40884,0 -4.4244,0.78656 -2.01556,0.78656 -3.49036,2.26136 -1.4748,1.4748 -2.31052,3.49036 -0.78656,2.01556 -0.78656,4.47356 0,2.458 0.78656,4.47356 0.83572,2.01556 2.31052,3.49036 1.4748,1.4748 3.49036,2.26136 2.01556,0.78656 4.4244,0.78656 2.55632,0 4.71936,-0.9832 2.16304,-1.03236 3.9328,-3.09708 l 5.11264,4.71936 q -2.458,2.99876 -6.09584,4.57188 -3.58868,1.57312 -8.1114,1.57312 z"
               id="path12" />
            <path
               style="letter-spacing:0em"
               d="m 244.94756,0 15.33792,-34.412 h 7.8656 L 283.53816,0 h -8.3572 L 262.596,-30.38088 h 3.14624 L 253.10812,0 Z m 7.66896,-7.374 2.11388,-6.04668 h 17.6976 l 2.16304,6.04668 z"
               id="path13" />
          </g>
          <path
             d="m 4.08028,0 v -34.412 h 6.58744 L 30.9708,-9.63536 H 27.7754 V -34.412 H 35.641 V 0 H 29.10272 L 8.75048,-24.77664 h 3.1954 V 0 Z m 35.198586,0 15.33792,-34.412 h 7.8656 L 77.869466,0 h -8.3572 l -12.58496,-30.38088 h 3.14624 L 47.439426,0 Z m 7.66896,-7.374 2.11388,-6.04668 h 17.6976 l 2.16304,6.04668 z M 79.245979,0 v -5.1618 l 21.286281,-25.66152 0.9832,2.90044 H 79.639259 V -34.412 H 108.5945 v 5.1618 l -21.237121,25.66152 -0.9832,-2.90044 H 109.3319 V 0 Z m 30.675821,0 15.33792,-34.412 h 7.8656 L 148.5124,0 h -8.3572 l -12.58496,-30.38088 h 3.14624 L 118.08236,0 Z m 7.66896,-7.374 2.11388,-6.04668 h 17.6976 l 2.16304,6.04668 z M 152.10112,0 v -34.412 h 14.69884 q 7.17736,0 11.15932,3.34288 3.98196,3.29372 3.98196,9.14376 0,3.83448 -1.81892,6.6366 -1.81892,2.75296 -5.1618,4.22776 -3.34288,1.4748 -7.96392,1.4748 h -10.47108 l 3.53952,-3.49036 V 0 Z m 21.8762,0 -8.603,-12.48664 H 173.879 L 182.58032,0 Z m -13.91228,-12.19168 -3.53952,-3.73616 h 10.02864 q 3.687,0 5.50592,-1.57312 1.81892,-1.62228 1.81892,-4.4244 0,-2.85128 -1.81892,-4.4244 -1.81892,-1.57312 -5.50592,-1.57312 h -10.02864 l 3.53952,-3.78532 z M 188.23375,0 v -34.412 h 26.00564 v 6.3908 h -18.09088 v 21.6304 h 18.72996 V 0 Z m 7.32484,-14.35472 v -6.19416 h 16.56692 v 6.19416 z m 1.17984,-22.8594 6.6366,-7.07904 h 8.25888 l -8.89796,7.07904 z"
             id="text6"
             class="cls-1"
             style="font-weight:700;font-size:49.16px;font-family:Montserrat-Bold, Montserrat;font-variation-settings:'wght' 700;fill:#ffffff"
             transform="translate(112.08,99.98)"
             aria-label="NAZARÉ" />
        </g>
        <g
           id="logo">
          <polygon
             id="carsurf"
             class="cls-2"
             points="7.53 0 98.53 0 98.53 105.71 84.71 115 67.74 89.79 67.74 30.79 28.24 30.79 7.53 0" />
          <polygon
             id="servicos"
             class="cls-2"
             points="0 .15 30.79 45.91 30.79 117 55.42 117 55.42 147.79 0 147.79 0 .15" />
          <polygon
             id="praiadonorte"
             class="cls-2"
             points="61.58 91.67 61.58 147.79 99.35 147.79 61.58 91.67" />
          <path
             class="cls-2"
             d="M33.69,30.79h24.63L89.11,0s-30.79,30.79-55.42,30.79Z"
             id="path6" />
          <polygon
             class="cls-2"
             points="58.32 30.79 89.11 0 98.53 0 98.53 43.38 72.56 30.79 58.32 30.79"
             id="polygon6" />
          <g
             id="squares">
            <rect
               class="cls-2"
               y="130.86"
               width="15.4"
               height="15.4"
               id="rect6" />
            <rect
               class="cls-2"
               x="15.4"
               y="115.46"
               width="15.4"
               height="15.4"
               id="rect7" />
            <rect
               class="cls-2"
               x="15.4"
               y="100.07"
               width="15.4"
               height="15.4"
               id="rect8" />
            <rect
               class="cls-2"
               y="115.46"
               width="15.4"
               height="15.4"
               id="rect9" />
          </g>
        </g>
      </g>
    </g>
  </g>
</svg>
