<?xml version="1.0" encoding="UTF-8" standalone="no"?>
<svg
   id="Layer_2"
   data-name="Layer 2"
   viewBox="0 0 350 155.63"
   version="1.1"
   sodipodi:docname="nq-horizontal.svg"
   xmlns:inkscape="http://www.inkscape.org/namespaces/inkscape"
   xmlns:sodipodi="http://sodipodi.sourceforge.net/DTD/sodipodi-0.dtd"
   xmlns="http://www.w3.org/2000/svg"
   xmlns:svg="http://www.w3.org/2000/svg">
  <sodipodi:namedview
     id="namedview20"
     pagecolor="#ffffff"
     bordercolor="#000000"
     borderopacity="0.25"
     inkscape:showpageshadow="2"
     inkscape:pageopacity="0.0"
     inkscape:pagecheckerboard="0"
     inkscape:deskcolor="#d1d1d1" />
  <defs
     id="defs5">
    <style
       id="style1">
      .cls-1, .cls-2, .cls-3 {
        fill: #606161;
      }

      .cls-4 {
        fill: #06a1cc;
      }

      .cls-5 {
        fill: #6d6e71;
      }

      .cls-6 {
        fill: url(#linear-gradient);
      }

      .cls-7 {
        fill: #ed1c24;
      }

      .cls-2 {
        font-family: Montserrat-Regular, Montserrat;
        font-size: 16.42px;
        font-variation-settings: 'wght' 400;
      }

      .cls-8 {
        fill: #808285;
      }

      .cls-3 {
        font-family: Montserrat-Bold, Montserrat;
        font-size: 41.05px;
        font-variation-settings: 'wght' 700;
        font-weight: 700;
      }

      .cls-9 {
        letter-spacing: 0em;
      }

      .cls-10 {
        fill: #27748a;
      }

      .cls-11 {
        letter-spacing: -.01em;
      }

      .cls-12 {
        letter-spacing: -.01em;
      }

      .cls-13 {
        letter-spacing: -.01em;
      }

      .cls-14 {
        letter-spacing: 0em;
      }

      .cls-15 {
        letter-spacing: 0em;
      }
    </style>
    <linearGradient
       id="linear-gradient"
       x1="58.32"
       y1="21.69"
       x2="98.53"
       y2="21.69"
       gradientUnits="userSpaceOnUse">
      <stop
         offset=".47"
         stop-color="#2484c6"
         id="stop1" />
      <stop
         offset=".48"
         stop-color="#2484c6"
         stop-opacity=".98"
         id="stop2" />
      <stop
         offset=".74"
         stop-color="#2484c6"
         stop-opacity=".46"
         id="stop3" />
      <stop
         offset=".92"
         stop-color="#2484c6"
         stop-opacity=".13"
         id="stop4" />
      <stop
         offset="1"
         stop-color="#2484c6"
         stop-opacity="0"
         id="stop5" />
    </linearGradient>
  </defs>
  <g
     id="MASTER">
    <g
       id="ig-horizontal-elements">
      <g
         id="lettering">
        <g
           id="text11"
           class="cls-2"
           style="font-size:16.42px;font-family:Montserrat-Regular, Montserrat;font-variation-settings:'wght' 400;fill:#606161"
           transform="translate(113.21,148.19)"
           aria-label="Empresa Municipal">
          <path
             d="m 1.87188,0 v -11.494 h 7.8816 v 1.05088 H 3.08696 v 9.39224 H 9.99978 V 0 Z M 2.9556,-5.32008 V -6.35454 H 9.031 v 1.03446 z M 12.61057,0 v -8.6205 h 1.11656 v 2.33164 l -0.18062,-0.4105 q 0.39408,-0.93594 1.26434,-1.46138 0.88668,-0.54186 2.08534,-0.54186 1.26434,0 2.15102,0.64038 0.88668,0.62396 1.1494,1.8883 l -0.45976,-0.18062 q 0.37766,-1.05088 1.33002,-1.69126 0.96878,-0.6568 2.31522,-0.6568 1.05088,0 1.82262,0.4105 0.78816,0.39408 1.21508,1.21508 0.44334,0.821 0.44334,2.06892 V 0 h -1.16582 v -4.89316 q 0,-1.36286 -0.6568,-2.0525 -0.64038,-0.70606 -1.82262,-0.70606 -0.88668,0 -1.54348,0.37766 -0.64038,0.36124 -1.00162,1.0673 -0.34482,0.68964 -0.34482,1.67484 V 0 h -1.16582 v -4.89316 q 0,-1.36286 -0.6568,-2.0525 -0.6568,-0.70606 -1.83904,-0.70606 -0.87026,0 -1.52706,0.37766 -0.6568,0.36124 -1.01804,1.0673 -0.34482,0.68964 -0.34482,1.67484 V 0 Z m 21.871454,0.0821 q -1.11656,0 -2.01966,-0.50902 -0.9031,-0.52544 -1.44496,-1.49422 -0.52544,-0.9852 -0.52544,-2.39732 0,-1.41212 0.52544,-2.3809 0.52544,-0.9852 1.42854,-1.49422 0.9031,-0.50902 2.03608,-0.50902 1.2315,0 2.20028,0.55828 0.9852,0.54186 1.54348,1.54348 0.55828,0.9852 0.55828,2.28238 0,1.3136 -0.55828,2.2988 -0.55828,0.9852 -1.54348,1.54348 -0.96878,0.55828 -2.20028,0.55828 z m -4.44982,3.10338 V -8.6205 h 1.11656 v 2.59436 l -0.11494,1.7241 0.1642,1.74052 v 5.747 z m 4.36772,-4.13784 q 0.91952,0 1.642,-0.4105 0.72248,-0.42692 1.1494,-1.18224 0.42692,-0.77174 0.42692,-1.77336 0,-1.00162 -0.42692,-1.75694 -0.42692,-0.75532 -1.1494,-1.18224 -0.72248,-0.42692 -1.642,-0.42692 -0.91952,0 -1.65842,0.42692 -0.72248,0.42692 -1.1494,1.18224 -0.4105,0.75532 -0.4105,1.75694 0,1.00162 0.4105,1.77336 0.42692,0.75532 1.1494,1.18224 0.7389,0.4105 1.65842,0.4105 z"
             id="path20" />
          <path
             style="letter-spacing:-0.01em"
             d="m 41.165581,0 v -8.6205 h 1.11656 v 2.34806 l -0.11494,-0.4105 q 0.36124,-0.9852 1.21508,-1.49422 0.85384,-0.52544 2.11818,-0.52544 v 1.13298 q -0.06568,0 -0.13136,0 -0.06568,-0.01642 -0.13136,-0.01642 -1.36286,0 -2.1346,0.83742 -0.77174,0.821 -0.77174,2.34806 V 0 Z"
             id="path21" />
          <path
             d="m 51.19724,0.0821 q -1.34644,0 -2.36448,-0.55828 -1.01804,-0.5747 -1.59274,-1.5599 -0.5747,-1.00162 -0.5747,-2.28238 0,-1.28076 0.54186,-2.26596 0.55828,-0.9852 1.51064,-1.54348 0.96878,-0.5747 2.16744,-0.5747 1.21508,0 2.15102,0.55828 0.95236,0.54186 1.49422,1.54348 0.54186,0.9852 0.54186,2.28238 0,0.0821 -0.01642,0.18062 0,0.0821 0,0.18062 H 47.552 v -0.87026 h 6.87998 l -0.45976,0.34482 q 0,-0.93594 -0.4105,-1.65842 -0.39408,-0.7389 -1.08372,-1.1494 -0.68964,-0.4105 -1.59274,-0.4105 -0.88668,0 -1.59274,0.4105 -0.70606,0.4105 -1.10014,1.1494 -0.39408,0.7389 -0.39408,1.69126 v 0.18062 q 0,0.9852 0.42692,1.74052 0.44334,0.7389 1.21508,1.16582 0.78816,0.4105 1.78978,0.4105 0.78816,0 1.46138,-0.27914 0.68964,-0.27914 1.18224,-0.85384 l 0.6568,0.75532 q -0.5747,0.68964 -1.44496,1.05088 -0.85384,0.36124 -1.8883,0.36124 z m 8.571242,0 q -1.0673,0 -2.01966,-0.29556 -0.95236,-0.31198 -1.49422,-0.77174 l 0.52544,-0.91952 q 0.52544,0.39408 1.34644,0.68964 0.821,0.27914 1.7241,0.27914 1.2315,0 1.77336,-0.37766 0.54186,-0.39408 0.54186,-1.03446 0,-0.47618 -0.31198,-0.7389 -0.29556,-0.27914 -0.78816,-0.4105 -0.4926,-0.14778 -1.10014,-0.2463 -0.60754,-0.09852 -1.21508,-0.22988 -0.59112,-0.13136 -1.08372,-0.37766 -0.4926,-0.26272 -0.80458,-0.70606 -0.29556,-0.44334 -0.29556,-1.18224 0,-0.70606 0.39408,-1.26434 0.39408,-0.55828 1.1494,-0.87026 0.77174,-0.3284 1.87188,-0.3284 0.83742,0 1.67484,0.22988 0.83742,0.21346 1.37928,0.5747 l -0.50902,0.93594 q -0.5747,-0.39408 -1.2315,-0.55828 -0.6568,-0.18062 -1.3136,-0.18062 -1.16582,0 -1.7241,0.4105 -0.54186,0.39408 -0.54186,1.01804 0,0.4926 0.29556,0.77174 0.31198,0.27914 0.80458,0.44334 0.50902,0.14778 1.10014,0.2463 0.60754,0.09852 1.19866,0.2463 0.60754,0.13136 1.10014,0.37766 0.50902,0.22988 0.80458,0.67322 0.31198,0.42692 0.31198,1.13298 0,0.75532 -0.42692,1.3136 -0.4105,0.54186 -1.21508,0.85384 -0.78816,0.29556 -1.92114,0.29556 z M 70.868416,0 v -1.90472 l -0.04926,-0.31198 v -3.18548 q 0,-1.10014 -0.62396,-1.69126 -0.60754,-0.59112 -1.82262,-0.59112 -0.83742,0 -1.59274,0.27914 -0.75532,0.27914 -1.28076,0.7389 l -0.52544,-0.87026 q 0.6568,-0.55828 1.57632,-0.85384 0.91952,-0.31198 1.93756,-0.31198 1.67484,0 2.57794,0.83742 0.91952,0.821 0.91952,2.51226 V 0 Z m -2.97202,0.0821 q -0.96878,0 -1.69126,-0.31198 -0.70606,-0.3284 -1.08372,-0.88668 -0.37766,-0.5747 -0.37766,-1.3136 0,-0.67322 0.31198,-1.21508 0.3284,-0.55828 1.05088,-0.88668 0.7389,-0.34482 1.9704,-0.34482 h 2.97202 v 0.87026 h -2.93918 q -1.24792,0 -1.74052,0.44334 -0.47618,0.44334 -0.47618,1.10014 0,0.7389 0.5747,1.18224 0.5747,0.44334 1.60916,0.44334 0.9852,0 1.69126,-0.44334 0.72248,-0.45976 1.05088,-1.3136 l 0.26272,0.80458 q -0.3284,0.85384 -1.1494,1.36286 -0.80458,0.50902 -2.03608,0.50902 z M 79.702364,0 v -11.494 h 1.00162 l 5.2544,8.96532 h -0.52544 l 5.20514,-8.96532 h 1.00162 V 0 h -1.16582 v -9.67138 h 0.27914 l -4.79464,8.21 h -0.5747 l -4.82748,-8.21 h 0.31198 V 0 Z m 18.997941,0.0821 q -1.10014,0 -1.92114,-0.4105 -0.821,-0.4105 -1.28076,-1.2315 -0.44334,-0.821 -0.44334,-2.0525 v -5.0081 h 1.16582 v 4.87674 q 0,1.37928 0.67322,2.08534 0.68964,0.68964 1.92114,0.68964 0.9031,0 1.559905,-0.36124 0.67322,-0.37766 1.01804,-1.08372 0.36124,-0.70606 0.36124,-1.69126 v -4.5155 h 1.16582 V 0 h -1.11656 v -2.36448 l 0.18062,0.42692 q -0.4105,0.95236 -1.28076,1.49422 Q 99.849705,0.0821 98.700305,0.0821 Z M 106.17142,0 v -8.6205 h 1.11656 v 2.36448 l -0.18062,-0.44334 q 0.4105,-0.93594 1.3136,-1.46138 0.9031,-0.54186 2.15102,-0.54186 1.05088,0 1.83904,0.4105 0.80458,0.39408 1.24792,1.21508 0.45976,0.821 0.45976,2.06892 V 0 h -1.16582 v -4.89316 q 0,-1.36286 -0.68964,-2.0525 -0.67322,-0.70606 -1.90472,-0.70606 -0.91952,0 -1.60916,0.37766 -0.67322,0.36124 -1.05088,1.0673 -0.36124,0.68964 -0.36124,1.67484 V 0 Z m 11.09993,0 v -8.6205 h 1.16582 V 0 Z m 0.59112,-10.52522 q -0.36124,0 -0.60754,-0.2463 -0.2463,-0.2463 -0.2463,-0.59112 0,-0.34482 0.2463,-0.5747 0.2463,-0.2463 0.60754,-0.2463 0.36124,0 0.60754,0.22988 0.2463,0.22988 0.2463,0.5747 0,0.36124 -0.2463,0.60754 -0.22988,0.2463 -0.60754,0.2463 z"
             id="path22" />
          <path
             style="letter-spacing:0em"
             d="m 125.27514,0.0821 q -1.28076,0 -2.2988,-0.55828 -1.00162,-0.5747 -1.57632,-1.5599 -0.5747,-1.00162 -0.5747,-2.28238 0,-1.29718 0.5747,-2.28238 0.5747,-0.9852 1.57632,-1.54348 1.01804,-0.55828 2.2988,-0.55828 1.10014,0 1.98682,0.42692 0.88668,0.42692 1.3957,1.28076 l -0.87026,0.59112 q -0.44334,-0.6568 -1.10014,-0.96878 -0.6568,-0.31198 -1.42854,-0.31198 -0.91952,0 -1.65842,0.42692 -0.7389,0.4105 -1.16582,1.16582 -0.42692,0.75532 -0.42692,1.77336 0,1.01804 0.42692,1.77336 0.42692,0.75532 1.16582,1.18224 0.7389,0.4105 1.65842,0.4105 0.77174,0 1.42854,-0.31198 0.6568,-0.31198 1.10014,-0.95236 l 0.87026,0.59112 q -0.50902,0.83742 -1.3957,1.28076 -0.88668,0.42692 -1.98682,0.42692 z"
             id="path23" />
          <path
             d="m 130.81558,0 v -8.6205 h 1.16582 V 0 Z m 0.59112,-10.52522 q -0.36124,0 -0.60754,-0.2463 -0.2463,-0.2463 -0.2463,-0.59112 0,-0.34482 0.2463,-0.5747 0.2463,-0.2463 0.60754,-0.2463 0.36124,0 0.60754,0.22988 0.2463,0.22988 0.2463,0.5747 0,0.36124 -0.2463,0.60754 -0.22988,0.2463 -0.60754,0.2463 z"
             id="path24" />
          <path
             style="letter-spacing:0em"
             d="m 139.67541,0.0821 q -1.11656,0 -2.01966,-0.50902 -0.9031,-0.52544 -1.44496,-1.49422 -0.52544,-0.9852 -0.52544,-2.39732 0,-1.41212 0.52544,-2.3809 0.52544,-0.9852 1.42854,-1.49422 0.9031,-0.50902 2.03608,-0.50902 1.2315,0 2.20028,0.55828 0.9852,0.54186 1.54348,1.54348 0.55828,0.9852 0.55828,2.28238 0,1.3136 -0.55828,2.2988 -0.55828,0.9852 -1.54348,1.54348 -0.96878,0.55828 -2.20028,0.55828 z m -4.44982,3.10338 V -8.6205 h 1.11656 v 2.59436 l -0.11494,1.7241 0.1642,1.74052 v 5.747 z m 4.36772,-4.13784 q 0.91952,0 1.642,-0.4105 0.72248,-0.42692 1.1494,-1.18224 0.42692,-0.77174 0.42692,-1.77336 0,-1.00162 -0.42692,-1.75694 -0.42692,-0.75532 -1.1494,-1.18224 -0.72248,-0.42692 -1.642,-0.42692 -0.91952,0 -1.65842,0.42692 -0.72248,0.42692 -1.1494,1.18224 -0.4105,0.75532 -0.4105,1.75694 0,1.00162 0.4105,1.77336 0.42692,0.75532 1.1494,1.18224 0.7389,0.4105 1.65842,0.4105 z"
             id="path25" />
          <path
             d="m 151.71776,0 v -1.90472 l -0.0493,-0.31198 v -3.18548 q 0,-1.10014 -0.62396,-1.69126 -0.60754,-0.59112 -1.82262,-0.59112 -0.83742,0 -1.59274,0.27914 -0.75532,0.27914 -1.28076,0.7389 l -0.52544,-0.87026 q 0.6568,-0.55828 1.57632,-0.85384 0.91952,-0.31198 1.93756,-0.31198 1.67484,0 2.57794,0.83742 0.91952,0.821 0.91952,2.51226 V 0 Z m -2.97202,0.0821 q -0.96878,0 -1.69126,-0.31198 -0.70606,-0.3284 -1.08372,-0.88668 -0.37766,-0.5747 -0.37766,-1.3136 0,-0.67322 0.31198,-1.21508 0.3284,-0.55828 1.05088,-0.88668 0.7389,-0.34482 1.9704,-0.34482 h 2.97202 v 0.87026 h -2.93918 q -1.24792,0 -1.74052,0.44334 -0.47618,0.44334 -0.47618,1.10014 0,0.7389 0.5747,1.18224 0.5747,0.44334 1.60916,0.44334 0.9852,0 1.69126,-0.44334 0.72248,-0.45976 1.05088,-1.3136 l 0.26272,0.80458 q -0.3284,0.85384 -1.1494,1.36286 -0.80458,0.50902 -2.03608,0.50902 z M 156.00338,0 v -12.18364 h 1.16582 V 0 Z"
             id="path26" />
        </g>
        <g
           id="text16"
           class="cls-3"
           style="font-weight:700;font-size:41.05px;font-family:Montserrat-Bold, Montserrat;font-variation-settings:'wght' 700;fill:#606161"
           transform="translate(113.21,127.53)"
           aria-label="QUALIFICA">
          <path
             d="m 17.3231,0.49259999 q -3.3661,0 -6.28065,-1.10834998 Q 8.1689498,-1.7241 6.0343499,-3.7355499 q -2.09355,-2.01145 -3.284,-4.7207499 Q 1.60095,-11.1656 1.60095,-14.3675 q 0,-3.2019 1.1493999,-5.9112 1.19045,-2.7093 3.32505,-4.72075 2.1345999,-2.011449 5.0081001,-3.119799 2.8735,-1.10835 6.2396,-1.10835 3.40715,0 6.2396,1.10835 2.8735,1.10835 4.967049,3.119799 2.1346,1.9704 3.32505,4.6797 1.19045,2.7093 1.19045,5.95225 0,3.2019 -1.19045,5.9522502 -1.19045,2.7092999 -3.32505,4.7207499 Q 26.4362,-1.7241 23.5627,-0.61574999 20.73025,0.49259999 17.3231,0.49259999 Z m 9.40045,6.11644991 q -1.68305,0 -3.2019,-0.36945 -1.4778,-0.36945 -2.9556,-1.19045 -1.43675,-0.821 -3.0377,-2.2167 Q 15.96845,1.43675 14.1212,-0.61574999 L 21.0997,-2.3809 q 1.10835,1.51885002 2.0525,2.42195 0.94415,0.90309998 1.8062,1.27255 0.9031,0.36945 1.8883,0.36945 2.627199,0 4.679699,-2.13459999 l 2.9556,3.53029989 q -2.91455,3.5303 -7.758449,3.5303 z M 17.3231,-5.1722999 q 1.92935,0 3.5303,-0.6568 1.642,-0.6568 2.8735,-1.8883 1.2315,-1.2314999 1.8883,-2.9145501 0.69785,-1.7241 0.69785,-3.73555 0,-2.0525 -0.69785,-3.73555 -0.6568,-1.68305 -1.8883,-2.91455 -1.2315,-1.2315 -2.8735,-1.8883 -1.60095,-0.6568 -3.5303,-0.6568 -1.92935,0 -3.57135,0.6568 -1.642,0.6568 -2.8735,1.8883 -1.1904502,1.2315 -1.8883002,2.91455 -0.6568,1.68305 -0.6568,3.73555 0,2.01145 0.6568,3.73555 0.69785,1.6830502 1.8883002,2.9145501 1.2315,1.2315 2.8735,1.8883 1.642,0.6568 3.57135,0.6568 z"
             id="path27" />
          <path
             style="letter-spacing:-0.01em"
             d="m 50.823701,0.49259999 q -6.11645,0 -9.56465,-3.40714989 -3.4482,-3.40715 -3.4482,-9.7288501 v -16.091599 h 6.6501 V -12.8897 q 0,4.1050002 1.68305,5.9112001 1.68305,1.8062 4.72075,1.8062 3.0377,0 4.72075,-1.8062 1.68305,-1.8061999 1.68305,-5.9112001 v -15.845299 h 6.568 V -12.6434 q 0,6.3217001 -3.4482,9.7288501 -3.4482,3.40714989 -9.56465,3.40714989 z"
             id="path28" />
          <path
             d="m 66.010547,0 12.8076,-28.734999 h 6.568 L 98.234797,0 h -6.9785 l -10.5088,-25.3689 h 2.6272 L 72.824847,0 Z m 6.4038,-6.1574999 1.76515,-5.0491501 h 14.778 l 1.8062,5.0491501 z M 101.23148,0 v -28.734999 h 6.6501 v 23.3163991 h 14.40855 V 0 Z m 24.7942,0 v -28.734999 h 6.6501 V 0 Z m 13.46436,0 v -28.734999 h 21.71545 V -23.3985 H 146.14014 V 0 Z m 6.1575,-10.46775 v -5.3365 h 13.7928 v 5.3365 z M 165.72099,0 v -28.734999 h 6.6501 V 0 Z"
             id="path29" />
          <path
             style="letter-spacing:-0.01em"
             d="m 192.94889,0.49259999 q -3.32505,0 -6.19855,-1.06729998 -2.83245,-1.10835001 -4.926,-3.11979991 -2.09355,-2.01145 -3.284,-4.7207499 -1.1494,-2.7093002 -1.1494,-5.9522502 0,-3.24295 1.1494,-5.95225 1.19045,-2.7093 3.284,-4.72075 2.1346,-2.011449 4.96705,-3.078749 2.83245,-1.10835 6.19855,-1.10835 3.73555,0 6.7322,1.3136 3.0377,1.272549 5.0902,3.776599 l -4.2692,3.9408 q -1.4778,-1.68305 -3.284,-2.50405 -1.8062,-0.86205 -3.9408,-0.86205 -2.01145,0 -3.6945,0.6568 -1.68305,0.6568 -2.91455,1.8883 -1.2315,1.2315 -1.92935,2.91455 -0.6568,1.68305 -0.6568,3.73555 0,2.0525 0.6568,3.73555 0.69785,1.6830502 1.92935,2.9145501 1.2315,1.2315 2.91455,1.8883 1.68305,0.6568 3.6945,0.6568 2.1346,0 3.9408,-0.821 1.8062,-0.86205 3.284,-2.5861499 l 4.2692,3.9407999 q -2.0525,2.5040499 -5.0902,3.81764992 -2.99665,1.31359997 -6.77325,1.31359997 z"
             id="path30" />
          <path
             style="letter-spacing:0em"
             d="m 204.57055,0 12.8076,-28.734999 h 6.568 L 236.7948,0 h -6.9785 l -10.5088,-25.3689 h 2.6272 L 211.38485,0 Z m 6.4038,-6.1574999 1.76515,-5.0491501 h 14.778 l 1.8062,5.0491501 z"
             id="path31" />
        </g>
        <path
           d="M 3.4071499,0 V -28.734999 H 8.9078498 L 25.8615,-8.0457999 H 23.19325 V -28.734999 h 6.567999 V 0 H 24.3016 L 7.3068999,-20.6892 H 9.9751498 V 0 Z M 32.798973,0 45.606572,-28.734999 h 6.568 L 65.023222,0 h -6.9785 l -10.5088,-25.3689 h 2.6272 L 39.613273,0 Z m 6.4038,-6.1574999 1.76515,-5.0491501 h 14.777999 l 1.8062,5.0491501 z M 66.172655,0 v -4.3102499 l 17.774649,-21.4281001 0.821,2.42195 H 66.501055 v -5.418599 h 24.178449 v 4.310249 l -17.733599,21.4281001 -0.821,-2.42195 H 91.295254 V 0 Z m 25.615183,0 12.807602,-28.734999 h 6.568 L 124.01209,0 h -6.9785 l -10.5088,-25.3689 h 2.6272 L 98.602137,0 Z m 6.403799,-6.1574999 1.76515,-5.0491501 h 14.778003 l 1.8062,5.0491501 z M 127.00877,0 v -28.734999 h 12.27395 q 5.9933,0 9.31835,2.791399 3.32505,2.75035 3.32505,7.6353 0,3.2019 -1.51885,5.54175 -1.51885,2.2988 -4.31025,3.5303002 -2.7914,1.2314999 -6.6501,1.2314999 h -8.74365 l 2.9556,-2.9145501 V 0 Z m 18.26725,0 -7.18375,-10.4267 h 7.10165 L 152.45977,0 Z m -11.61715,-10.1804 -2.9556,-3.1198 h 8.3742 q 3.07875,0 4.5976,-1.3136 1.51885,-1.35465 1.51885,-3.6945 0,-2.3809 -1.51885,-3.6945 -1.51885,-1.3136 -4.5976,-1.3136 h -8.3742 l 2.9556,-3.16085 z M 157.18054,0 v -28.734999 h 21.71545 v 5.336499 h -15.1064 v 18.0620001 h 15.64005 V 0 Z m 6.11645,-11.9866 v -5.1723 h 13.83385 v 5.1723 z m 0.9852,-19.088249 5.54175,-5.9112 h 6.8964 l -7.43005,5.9112 z"
           id="text17"
           class="cls-3"
           style="font-weight:700;font-size:41.05px;font-family:Montserrat-Bold, Montserrat;font-variation-settings:'wght' 700;fill:#606161"
           transform="translate(113.21,91.27)"
           aria-label="NAZARÉ" />
      </g>
      <g
         id="logo">
        <polygon
           id="carsurf"
           class="cls-4"
           points="7.53 0 98.53 0 98.53 105.71 84.71 115 67.74 89.79 67.74 30.79 28.24 30.79 7.53 0" />
        <polygon
           id="servicos"
           class="cls-1"
           points="0 .15 30.79 45.91 30.79 117 55.42 117 55.42 147.79 0 147.79 0 .15" />
        <polygon
           id="praiadonorte"
           class="cls-7"
           points="61.58 91.67 61.58 147.79 99.35 147.79 61.58 91.67" />
        <path
           class="cls-10"
           d="M33.69,30.79h24.63L89.11,0s-30.79,30.79-55.42,30.79Z"
           id="path17" />
        <polygon
           class="cls-6"
           points="58.32 30.79 89.11 0 98.53 0 98.53 43.38 72.56 30.79 58.32 30.79"
           id="polygon17" />
        <g
           id="squares">
          <rect
             class="cls-5"
             y="130.86"
             width="15.4"
             height="15.4"
             id="rect17" />
          <rect
             class="cls-5"
             x="15.4"
             y="115.46"
             width="15.4"
             height="15.4"
             id="rect18" />
          <rect
             class="cls-8"
             x="15.4"
             y="100.07"
             width="15.4"
             height="15.4"
             id="rect19" />
          <rect
             class="cls-8"
             y="115.46"
             width="15.4"
             height="15.4"
             id="rect20" />
        </g>
      </g>
    </g>
  </g>
</svg>
