<?xml version="1.0" encoding="UTF-8" standalone="no"?>
<svg
   id="Layer_2"
   data-name="Layer 2"
   viewBox="0 0 156.71 250"
   version="1.1"
   sodipodi:docname="nq-vertical-white.svg"
   xmlns:inkscape="http://www.inkscape.org/namespaces/inkscape"
   xmlns:sodipodi="http://sodipodi.sourceforge.net/DTD/sodipodi-0.dtd"
   xmlns="http://www.w3.org/2000/svg"
   xmlns:svg="http://www.w3.org/2000/svg">
  <sodipodi:namedview
     id="namedview14"
     pagecolor="#ffffff"
     bordercolor="#000000"
     borderopacity="0.25"
     inkscape:showpageshadow="2"
     inkscape:pageopacity="0.0"
     inkscape:pagecheckerboard="0"
     inkscape:deskcolor="#d1d1d1" />
  <defs
     id="defs1">
    <style
       id="style1">
      .cls-1 {
        font-family: Montserrat-Bold, Montserrat;
        font-size: 27.17px;
        font-variation-settings: 'wght' 700;
        font-weight: 700;
      }

      .cls-1, .cls-2, .cls-3 {
        fill: #fff;
      }

      .cls-4 {
        letter-spacing: 0em;
      }

      .cls-3 {
        font-family: Montserrat-Regular, Montserrat;
        font-size: 12.08px;
        font-variation-settings: 'wght' 400;
      }

      .cls-5 {
        letter-spacing: -.01em;
      }

      .cls-6 {
        letter-spacing: -.01em;
      }

      .cls-7 {
        letter-spacing: -.01em;
      }

      .cls-8 {
        letter-spacing: 0em;
      }

      .cls-9 {
        letter-spacing: 0em;
      }
    </style>
  </defs>
  <g
     id="MASTER">
    <g
       id="lg-vertical-white">
      <g
         id="g14">
        <g
           id="text7"
           class="cls-3"
           style="font-size:12.08px;font-family:Montserrat-Regular, Montserrat;font-variation-settings:'wght' 400;fill:#ffffff"
           transform="translate(19.97,244.53)"
           aria-label="Empresa Municipal">
          <path
             d="m 1.37712,0 v -8.4559999 h 5.7984 V -7.68288 H 2.27104 v 6.90976 H 7.35672 V 0 Z M 2.1744,-3.91392 V -4.67496 H 6.644 v 0.76104 z M 9.2774477,0 v -6.342 h 0.8214403 v 1.71536 l -0.1328803,-0.302 q 0.2899203,-0.68856 0.9301603,-1.07512 0.65232,-0.39864 1.53416,-0.39864 0.93016,0 1.58248,0.47112 0.65232,0.45904 0.8456,1.3892 l -0.33824,-0.13288 q 0.27784,-0.77312 0.97848,-1.24424 0.71272,-0.4832 1.70328,-0.4832 0.77312,0 1.34088,0.302 0.57984,0.28992 0.89392,0.89392 0.32616,0.604 0.32616,1.52208 V 0 h -0.85768 v -3.59984 q 0,-1.00264 -0.4832,-1.51 -0.47112,-0.51944 -1.34088,-0.51944 -0.65232,0 -1.13552,0.27784 -0.47112,0.26576 -0.73688,0.7852 -0.25368,0.50736 -0.25368,1.23216 V 0 h -0.85768 v -3.59984 q 0,-1.00264 -0.4832,-1.51 -0.4832,-0.51944 -1.35296,-0.51944 -0.64024,0 -1.12344,0.27784 -0.4832,0.26576 -0.74896,0.7852 -0.25368,0.50736 -0.25368,1.23216 V 0 Z M 25.368018,0.0604 q -0.82144,0 -1.48584,-0.37448 -0.6644,-0.38656 -1.06304,-1.09928 -0.38656,-0.7248 -0.38656,-1.76368 0,-1.03888 0.38656,-1.7516 0.38656,-0.7248 1.05096,-1.09928 0.6644,-0.37448 1.49792,-0.37448 0.906,0 1.61872,0.41072 0.7248,0.39864 1.13552,1.13552 0.41072,0.7248 0.41072,1.67912 0,0.9664 -0.41072,1.6912 -0.41072,0.7248 -1.13552,1.13552 -0.71272,0.41072 -1.61872,0.41072 z m -3.27368,2.28312 V -6.342 h 0.82144 v 1.90864 l -0.08456,1.2684 0.1208,1.28048 v 4.228 z m 3.21328,-3.04416 q 0.67648,0 1.208,-0.302 0.53152,-0.31408 0.8456,-0.86976 0.31408,-0.56776 0.31408,-1.30464 0,-0.73688 -0.31408,-1.29256 -0.31408,-0.55568 -0.8456,-0.86976 -0.53152,-0.31408 -1.208,-0.31408 -0.67648,0 -1.22008,0.31408 -0.53152,0.31408 -0.8456,0.86976 -0.302,0.55568 -0.302,1.29256 0,0.73688 0.302,1.30464 0.31408,0.55568 0.8456,0.86976 0.5436,0.302 1.22008,0.302 z"
             id="path14" />
          <path
             style="letter-spacing:-0.01em"
             d="m 30.27592,0 v -6.342 h 0.82144 v 1.72744 l -0.08456,-0.302 q 0.26576,-0.7248 0.89392,-1.09928 0.62816,-0.38656 1.55832,-0.38656 v 0.83352 q -0.04832,0 -0.09664,0 -0.04832,-0.01208 -0.09664,-0.01208 -1.00264,0 -1.5704,0.61608 -0.56776,0.604 -0.56776,1.72744 V 0 Z"
             id="path15" />
          <path
             d="m 37.649758,0.0604 q -0.99056,0 -1.73952,-0.41072 -0.74896,-0.4228 -1.17176,-1.1476 -0.4228,-0.73688 -0.4228,-1.67912 0,-0.94224 0.39864,-1.66704 0.41072,-0.7248 1.11136,-1.13552 0.71272,-0.4228 1.59456,-0.4228 0.89392,0 1.58248,0.41072 0.70064,0.39864 1.09928,1.13552 0.39864,0.7248 0.39864,1.67912 0,0.0604 -0.01208,0.13288 0,0.0604 0,0.13288 h -5.52056 v -0.64024 h 5.06152 l -0.33824,0.25368 q 0,-0.68856 -0.302,-1.22008 -0.28992,-0.5436 -0.79728,-0.8456 -0.50736,-0.302 -1.17176,-0.302 -0.65232,0 -1.17176,0.302 -0.51944,0.302 -0.80936,0.8456 -0.28992,0.5436 -0.28992,1.24424 v 0.13288 q 0,0.7248 0.31408,1.28048 0.32616,0.5436 0.89392,0.85768 0.57984,0.302 1.31672,0.302 0.57984,0 1.07512,-0.20535999 0.50736,-0.20536001 0.86976,-0.62816001 l 0.4832,0.55568001 q -0.4228,0.50735999 -1.06304,0.77311999 -0.62816,0.26576 -1.3892,0.26576 z m 6.305761,0 q -0.7852,0 -1.48584,-0.21744 -0.70064,-0.22952 -1.09928,-0.56776 l 0.38656,-0.67648 q 0.38656,0.28992 0.99056,0.50736001 0.604,0.20535999 1.2684,0.20535999 0.906,0 1.30464,-0.27783999 0.39864,-0.28992001 0.39864,-0.76104001 0,-0.35032 -0.22952,-0.5436 -0.21744,-0.20536 -0.57984,-0.302 -0.3624,-0.10872 -0.80936,-0.1812 -0.44696,-0.07248 -0.89392,-0.16912 -0.43488,-0.09664 -0.79728,-0.27784 -0.3624,-0.19328 -0.59192,-0.51944 -0.21744,-0.32616 -0.21744,-0.86976 0,-0.51944 0.28992,-0.93016 0.28992,-0.41072 0.8456,-0.64024 0.56776,-0.2416 1.37712,-0.2416 0.61608,0 1.23216,0.16912 0.61608,0.15704 1.01472,0.4228 l -0.37448,0.68856 q -0.4228,-0.28992 -0.906,-0.41072 -0.4832,-0.13288 -0.9664,-0.13288 -0.85768,0 -1.2684,0.302 -0.39864,0.28992 -0.39864,0.74896 0,0.3624 0.21744,0.56776 0.22952,0.20536 0.59192,0.32616 0.37448,0.10872 0.80936,0.1812 0.44696,0.07248 0.88184,0.1812 0.44696,0.09664 0.80936,0.27784 0.37448,0.16912 0.59192,0.49528 0.22952,0.31408 0.22952,0.83352 0,0.55568 -0.31408,0.9664 -0.302,0.39864 -0.89392,0.62816 -0.57984,0.21744 -1.41336,0.21744 z M 52.12161,0 V -1.40128 L 52.08537,-1.6308 v -2.34352 q 0,-0.80936 -0.45904,-1.24424 -0.44696,-0.43488 -1.34088,-0.43488 -0.61608,0 -1.17176,0.20536 -0.55568,0.20536 -0.94224,0.5436 l -0.38656,-0.64024 q 0.4832,-0.41072 1.15968,-0.62816 0.67648,-0.22952 1.42544,-0.22952 1.23216,0 1.89656,0.61608 0.67648,0.604 0.67648,1.84824 V 0 Z m -2.18648,0.0604 q -0.71272,0 -1.24424,-0.22952 -0.51944,-0.2416 -0.79728,-0.65231999 Q 47.61577,-1.24424 47.61577,-1.78784 q 0,-0.49528 0.22952,-0.89392 0.2416,-0.41072 0.77312,-0.65232 0.5436,-0.25368 1.4496,-0.25368 h 2.18648 v 0.64024 h -2.16232 q -0.91808,0 -1.28048,0.32616 -0.35032,0.32616 -0.35032,0.80936 0,0.5436 0.4228,0.86976001 0.4228,0.32615999 1.18384,0.32615999 0.7248,0 1.24424,-0.32615999 Q 51.84377,-1.28048 52.08537,-1.90864 l 0.19328,0.59192 q -0.2416,0.62816 -0.8456,1.00264 Q 50.84113,0.0604 49.93513,0.0604 Z M 58.620641,0 v -8.4559999 h 0.73688 l 3.8656,6.5956799 h -0.38656 l 3.82936,-6.5956799 h 0.73688 V 0 h -0.85768 v -7.11512 h 0.20536 l -3.52736,6.04 h -0.4228 l -3.55152,-6.04 h 0.22952 V 0 Z m 13.976558,0.0604 q -0.80936,0 -1.41336,-0.302 -0.604,-0.302 -0.94224,-0.906 -0.32616,-0.604 -0.32616,-1.51 V -6.342 h 0.85768 v 3.58776 q 0,1.01472 0.49528,1.53416 0.50736,0.50736 1.41336,0.50736 0.6644,0 1.1476,-0.26575999 0.49528,-0.27784001 0.74896,-0.79728001 0.26576,-0.51944 0.26576,-1.24424 v -3.322 h 0.85768 V 0 h -0.82144 v -1.73952 l 0.13288,0.31408 q -0.302,0.70064 -0.94224,1.09928 -0.62816,0.38656 -1.47376,0.38656 z M 78.09361,0 v -6.342 h 0.82144 v 1.73952 l -0.13288,-0.32616 q 0.302,-0.68856 0.9664,-1.07512 0.6644,-0.39864 1.58248,-0.39864 0.77312,0 1.35296,0.302 0.59192,0.28992 0.91808,0.89392 0.33824,0.604 0.33824,1.52208 V 0 h -0.85768 v -3.59984 q 0,-1.00264 -0.50736,-1.51 -0.49528,-0.51944 -1.40128,-0.51944 -0.67648,0 -1.18384,0.27784 -0.49528,0.26576 -0.77312,0.7852 -0.26576,0.50736 -0.26576,1.23216 V 0 Z m 8.166088,0 v -6.342 h 0.85768 V 0 Z m 0.43488,-7.74328 q -0.26576,0 -0.44696,-0.1811999 -0.1812,-0.1812 -0.1812,-0.43488 0,-0.25368 0.1812,-0.4228 0.1812,-0.1812 0.44696,-0.1812 0.26576,0 0.44696,0.16912 0.1812,0.16912 0.1812,0.4228 0,0.26576 -0.1812,0.44696 -0.16912,0.1811999 -0.44696,0.1811999 z"
             id="path16" />
          <path
             style="letter-spacing:0em"
             d="m 92.129363,0.0604 q -0.94224,0 -1.6912,-0.41072 -0.73688,-0.4228 -1.15968,-1.1476 -0.4228,-0.73688 -0.4228,-1.67912 0,-0.95432 0.4228,-1.67912 0.4228,-0.7248 1.15968,-1.13552 0.74896,-0.41072 1.6912,-0.41072 0.80936,0 1.46168,0.31408 0.65232,0.31408 1.0268,0.94224 l -0.64024,0.43488 q -0.32616,-0.4832 -0.80936,-0.71272 -0.4832,-0.22952 -1.05096,-0.22952 -0.67648,0 -1.22008,0.31408 -0.5436,0.302 -0.85768,0.85768 -0.31408,0.55568 -0.31408,1.30464 0,0.74896 0.31408,1.30464 0.31408,0.55568 0.85768,0.86976 0.5436,0.302 1.22008,0.302 0.56776,0 1.05096,-0.22951999 0.4832,-0.22952001 0.80936,-0.70064001 l 0.64024,0.43488 q -0.37448,0.61608 -1.0268,0.94224 -0.65232,0.31408 -1.46168,0.31408 z"
             id="path17" />
          <path
             style="letter-spacing:0em"
             d="M 96.19592,0 V -6.342 H 97.0536 V 0 Z m 0.43488,-7.74328 q -0.26576,0 -0.44696,-0.1811999 -0.1812,-0.1812 -0.1812,-0.43488 0,-0.25368 0.1812,-0.4228 0.1812,-0.1812 0.44696,-0.1812 0.26576,0 0.44696,0.16912 0.1812,0.16912 0.1812,0.4228 0,0.26576 -0.1812,0.44696 Q 96.90864,-7.74328 96.6308,-7.74328 Z"
             id="path18" />
          <path
             style="letter-spacing:0em"
             d="m 102.7196,0.0604 q -0.82144,0 -1.48584,-0.37448 -0.6644,-0.38656 -1.06304,-1.09928 -0.38656,-0.7248 -0.38656,-1.76368 0,-1.03888 0.38656,-1.7516 0.38656,-0.7248 1.05096,-1.09928 0.6644,-0.37448 1.49792,-0.37448 0.906,0 1.61872,0.41072 0.7248,0.39864 1.13552,1.13552 0.41072,0.7248 0.41072,1.67912 0,0.9664 -0.41072,1.6912 -0.41072,0.7248 -1.13552,1.13552 Q 103.6256,0.0604 102.7196,0.0604 Z M 99.44592,2.34352 V -6.342 h 0.82144 v 1.90864 l -0.0846,1.2684 0.1208,1.28048 v 4.228 z m 3.21328,-3.04416 q 0.67648,0 1.208,-0.302 0.53152,-0.31408 0.8456,-0.86976 0.31408,-0.56776 0.31408,-1.30464 0,-0.73688 -0.31408,-1.29256 -0.31408,-0.55568 -0.8456,-0.86976 -0.53152,-0.31408 -1.208,-0.31408 -0.67648,0 -1.22008,0.31408 -0.53152,0.31408 -0.8456,0.86976 -0.302,0.55568 -0.302,1.29256 0,0.73688 0.302,1.30464 0.31408,0.55568 0.8456,0.86976 0.5436,0.302 1.22008,0.302 z"
             id="path19" />
          <path
             d="M 111.57024,0 V -1.40128 L 111.534,-1.6308 v -2.34352 q 0,-0.80936 -0.45904,-1.24424 -0.44696,-0.43488 -1.34088,-0.43488 -0.61608,0 -1.17176,0.20536 -0.55568,0.20536 -0.94224,0.5436 l -0.38656,-0.64024 q 0.4832,-0.41072 1.15968,-0.62816 0.67648,-0.22952 1.42544,-0.22952 1.23216,0 1.89656,0.61608 0.67648,0.604 0.67648,1.84824 V 0 Z m -2.18648,0.0604 q -0.71272,0 -1.24424,-0.22952 -0.51944,-0.2416 -0.79728,-0.65231999 Q 107.0644,-1.24424 107.0644,-1.78784 q 0,-0.49528 0.22952,-0.89392 0.2416,-0.41072 0.77312,-0.65232 0.5436,-0.25368 1.4496,-0.25368 h 2.18648 v 0.64024 h -2.16232 q -0.91808,0 -1.28048,0.32616 Q 107.91,-2.2952 107.91,-1.812 q 0,0.5436 0.4228,0.86976001 0.4228,0.32615999 1.18384,0.32615999 0.7248,0 1.24424,-0.32615999 Q 111.2924,-1.28048 111.534,-1.90864 l 0.19328,0.59192 q -0.2416,0.62816 -0.8456,1.00264 -0.59192,0.37448 -1.49792,0.37448 z M 114.72312,0 v -8.9633599 h 0.85768 V 0 Z"
             id="path20" />
        </g>
        <g
           id="text12"
           class="cls-1"
           style="font-weight:700;font-size:27.17px;font-family:Montserrat-Bold, Montserrat;font-variation-settings:'wght' 700;fill:#ffffff"
           transform="translate(0,224.15)"
           aria-label="QUALIFICA">
          <path
             d="m 11.46574,0.32604 q -2.22794,0 -4.15701,-0.73359 Q 5.40683,-1.14114 3.99399,-2.47247 2.60832,-3.8038 1.82039,-5.59702 1.05963,-7.39024 1.05963,-9.5095 q 0,-2.11926 0.76076,-3.91248 0.78793,-1.79322 2.20077,-3.12455 1.41284,-1.33133 3.31474,-2.06492 1.9019,-0.73359 4.12984,-0.73359 2.25511,0 4.12984,0.73359 1.9019,0.73359 3.28757,2.06492 1.41284,1.30416 2.20077,3.09738 0.78793,1.79322 0.78793,3.93965 0,2.11926 -0.78793,3.93965 -0.78793,1.79322 -2.20077,3.12455 -1.38567,1.30416 -3.28757,2.03775 -1.87473,0.73359 -4.12984,0.73359 z m 6.22193,4.04833 q -1.11397,0 -2.11926,-0.24453 Q 14.59029,3.88531 13.61217,3.34191 12.66122,2.79851 11.60159,1.87473 10.56913,0.95095 9.34648,-0.40755 l 4.6189,-1.16831 q 0.73359,1.00529 1.3585,1.60303 0.62491,0.59774 1.19548,0.84227 0.59774,0.24453 1.24982,0.24453 1.73888,0 3.09738,-1.41284 l 1.95624,2.33662 q -1.92907,2.33662 -5.13513,2.33662 z m -6.22193,-7.79779 q 1.27699,0 2.33662,-0.43472 1.0868,-0.43472 1.9019,-1.24982 0.8151,-0.8151 1.24982,-1.92907 0.46189,-1.14114 0.46189,-2.47247 0,-1.3585 -0.46189,-2.47247 -0.43472,-1.11397 -1.24982,-1.92907 -0.8151,-0.8151 -1.9019,-1.24982 -1.05963,-0.43472 -2.33662,-0.43472 -1.27699,0 -2.36379,0.43472 -1.0868,0.43472 -1.9019,1.24982 -0.78793,0.8151 -1.24982,1.92907 -0.43472,1.11397 -0.43472,2.47247 0,1.33133 0.43472,2.47247 0.46189,1.11397 1.24982,1.92907 0.8151,0.8151 1.9019,1.24982 1.0868,0.43472 2.36379,0.43472 z"
             id="path21" />
          <path
             style="letter-spacing:-0.01em"
             d="m 33.63498,0.32604 q -4.04833,0 -6.33061,-2.25511 -2.28228,-2.25511 -2.28228,-6.43929 V -19.019 h 4.40154 v 10.48762 q 0,2.717 1.11397,3.91248 1.11397,1.19548 3.12455,1.19548 2.01058,0 3.12455,-1.19548 1.11397,-1.19548 1.11397,-3.91248 V -19.019 h 4.3472 v 10.65064 q 0,4.18418 -2.28228,6.43929 -2.28228,2.25511 -6.33061,2.25511 z"
             id="path22" />
          <path
             d="m 43.68547,0 8.47704,-19.019 h 4.3472 L 65.01392,0 h -4.6189 L 53.4395,-16.79106 h 1.73888 L 48.19569,0 Z m 4.23852,-4.0755 1.16831,-3.34191 h 9.7812 l 1.19548,3.34191 z M 66.997351,0 v -19.019 h 4.40154 v 15.43256 h 9.53667 V 0 Z m 16.410683,0 v -19.019 h 4.40154 V 0 Z m 8.911735,0 V -19.019 H 106.6927 v 3.5321 H 96.721309 V 0 Z m 4.0755,-6.92835 v -3.5321 h 9.129121 v 3.5321 z M 109.68139,0 v -19.019 h 4.40154 V 0 Z"
             id="path23" />
          <path
             style="letter-spacing:-0.01em"
             d="m 127.69706,0.32604 q -2.20077,0 -4.10267,-0.70642 -1.87473,-0.73359 -3.2604,-2.06492 -1.38567,-1.33133 -2.1736,-3.12455 -0.76076,-1.79322 -0.76076,-3.93965 0,-2.14643 0.76076,-3.93965 0.78793,-1.79322 2.1736,-3.12455 1.41284,-1.33133 3.28757,-2.03775 1.87473,-0.73359 4.10267,-0.73359 2.47247,0 4.45588,0.86944 2.01058,0.84227 3.36908,2.49964 l -2.82568,2.60832 q -0.97812,-1.11397 -2.1736,-1.65737 -1.19548,-0.57057 -2.60832,-0.57057 -1.33133,0 -2.4453,0.43472 -1.11397,0.43472 -1.92907,1.24982 -0.8151,0.8151 -1.27699,1.92907 -0.43472,1.11397 -0.43472,2.47247 0,1.3585 0.43472,2.47247 0.46189,1.11397 1.27699,1.92907 0.8151,0.8151 1.92907,1.24982 1.11397,0.43472 2.4453,0.43472 1.41284,0 2.60832,-0.5434 1.19548,-0.57057 2.1736,-1.71171 l 2.82568,2.60832 q -1.3585,1.65737 -3.36908,2.52681 -1.98341,0.86944 -4.48305,0.86944 z"
             id="path24" />
          <path
             d="m 135.38547,0 8.47704,-19.019 h 4.3472 L 156.71392,0 h -4.6189 l -6.95552,-16.79106 h 1.73888 L 139.89569,0 Z m 4.23852,-4.0755 1.16831,-3.34191 h 9.7812 l 1.19548,3.34191 z"
             id="path25" />
        </g>
        <path
           d="M 2.25511,0 V -19.019 H 5.89589 L 17.1171,-5.32532 H 15.35105 V -19.019 h 4.3472 V 0 H 16.08464 L 4.83626,-13.69368 H 6.60231 V 0 Z m 19.453735,0 8.47704,-19.019 h 4.3472 L 43.037295,0 h -4.6189 l -6.95552,-16.79106 h 1.73888 L 26.219065,0 Z m 4.23852,-4.0755 1.16831,-3.34191 h 9.7812 l 1.19548,3.34191 z M 43.798077,0 v -2.85285 l 11.76461,-14.18274 0.5434,1.60303 H 44.015437 V -19.019 h 16.00313 v 2.85285 l -11.73744,14.18274 -0.5434,-1.60303 h 12.68839 V 0 Z m 16.954067,0 8.47704,-19.019 h 4.3472 L 82.080594,0 h -4.6189 l -6.95552,-16.79106 h 1.73888 L 65.262364,0 Z m 4.23852,-4.0755 1.16831,-3.34191 h 9.7812 l 1.19548,3.34191 z M 84.064024,0 v -19.019 h 8.12383 q 3.96682,0 6.16759,1.84756 2.200766,1.82039 2.200766,5.05362 0,2.11926 -1.005286,3.66795 -1.00529,1.52152 -2.85285,2.33662 -1.84756,0.8151 -4.40154,0.8151 h -5.78721 l 1.95624,-1.92907 V 0 Z m 12.09065,0 -4.75475,-6.90118 h 4.70041 L 100.90942,0 Z m -7.68911,-6.73816 -1.95624,-2.06492 h 5.54268 q 2.03775,0 3.04304,-0.86944 1.00529,-0.89661 1.00529,-2.4453 0,-1.57586 -1.00529,-2.4453 -1.00529,-0.86944 -3.04304,-0.86944 h -5.54268 l 1.95624,-2.09209 z M 104.03399,0 v -19.019 h 14.37293 v 3.5321 h -9.99856 v 11.9548 h 10.35177 V 0 Z m 4.04833,-7.93364 v -3.42342 h 9.15629 v 3.42342 z m 0.65208,-12.63405 3.66795,-3.91248 h 4.56456 l -4.91777,3.91248 z"
           id="text13"
           class="cls-1"
           style="font-weight:700;font-size:27.17px;font-family:Montserrat-Bold, Montserrat;font-variation-settings:'wght' 700;fill:#ffffff"
           transform="translate(18.35,196.98)"
           aria-label="NAZARÉ" />
        <g
           id="g13">
          <polygon
             id="carsurf"
             class="cls-2"
             points="31.87 0 132.25 0 132.25 116.61 117 126.85 98.28 99.04 98.28 33.96 54.72 33.96 31.87 0" />
          <polygon
             id="servicos"
             class="cls-2"
             points="23.57 .16 57.53 50.64 57.53 129.06 84.7 129.06 84.7 163.02 23.57 163.02 23.57 .16" />
          <polygon
             id="praiadonorte"
             class="cls-2"
             points="91.49 101.11 91.49 163.02 133.15 163.02 91.49 101.11" />
        </g>
      </g>
    </g>
  </g>
</svg>
